<?xml version="1.0" encoding="iso-8859-1"?>
<!-- Generator: Adobe Illustrator 19.0.0, SVG Export Plug-In . SVG Version: 6.00 Build 0)  -->
<svg xmlns="http://www.w3.org/2000/svg" xmlns:xlink="http://www.w3.org/1999/xlink" version="1.1" id="Layer_1" x="0px" y="0px" viewBox="0 0 512 512" style="enable-background:new 0 0 512 512;" xml:space="preserve" width="512" height="512">
<g id="XMLID_1072_">
	<g id="XMLID_1073_">
		<circle id="XMLID_1952_" style="fill:#37D0F5;" cx="391.765" cy="232.743" r="40.208"/>
		<path id="XMLID_1074_" style="fill:#00ACEF;" d="M431.97,232.747c0,22.2-18,40.2-40.21,40.2c-14.13,0-26.57-7.3-33.72-18.33    c5.24,2.51,11.11,3.91,17.3,3.91c22.2,0,40.21-18,40.21-40.21c0-8.06-2.37-15.57-6.46-21.86    C422.63,202.927,431.97,216.747,431.97,232.747z"/>
		<g id="XMLID_1075_">
			<g id="XMLID_1076_">
				<path id="XMLID_1950_" style="fill:#F73E3E;" d="M180.548,123.247c3.554-0.661,6.881,1.948,7.087,5.557l7.587,132.749      c0.22,3.871-2.482,7.317-6.297,8.027l-56.16,10.442l-13.339,2.481c-3.819,0.701-7.57-1.535-8.764-5.231L70.041,150.66      c-1.104-3.442,1.063-7.072,4.617-7.732l79.413-14.758L180.548,123.247z"/>
				<path id="XMLID_1949_" style="fill:#EB1410;" d="M180.548,123.247c3.554-0.661,6.881,1.948,7.087,5.557l7.587,132.749      c0.22,3.871-2.482,7.317-6.297,8.027l-56.16,10.442c31.429-37.346,27.928-106.65,21.307-151.852L180.548,123.247z"/>
			</g>
			<path id="XMLID_1947_" style="fill:#F8B159;" d="M126.564,158.72L126.564,158.72c-7.456,0-13.5-6.044-13.5-13.5v-64     c0-7.456,6.044-13.5,13.5-13.5h0c7.456,0,13.5,6.044,13.5,13.5v64C140.064,152.676,134.02,158.72,126.564,158.72z"/>
		</g>
		<path id="XMLID_1077_" style="fill:#F9DAC0;" d="M483.24,317.437H30.62c-1.2-20.1,5.86-40.61,21.22-55.97    c14.82-14.81,34.41-21.92,53.81-21.33c17.25,0.52,33.68-7.68,43.57-21.81c13.18-18.85,35.05-31.18,59.8-31.18    c23.28,0,44,10.9,57.36,27.88c6.21,7.89,16.55,11.34,26.14,8.34c6.89-2.16,14.21-3.33,21.81-3.33c7.33,0,14.4,1.08,21.07,3.1    c15.87,4.78,29.45,14.82,38.74,28.1c5.53,7.91,15.07,11.85,24.57,10.1c22.8-4.21,47.22,2.5,64.86,20.14    C473.82,291.717,480.36,304.257,483.24,317.437z"/>
		<path id="XMLID_1078_" style="fill:#F9C6A5;" d="M483.24,317.437H229.72c71.89-26.33,97.5-64.34,105.68-94.3    c15.87,4.78,29.45,14.82,38.74,28.1c5.53,7.91,15.07,11.85,24.57,10.1c22.8-4.21,47.22,2.5,64.86,20.14    C473.82,291.717,480.36,304.257,483.24,317.437z"/>
		<g id="XMLID_1079_">
			<path id="XMLID_1936_" style="fill:#439EF4;" d="M473.239,444.28H38.761c-5.523,0-10-4.477-10-10V329.589h454.477V434.28     C483.239,439.803,478.761,444.28,473.239,444.28z"/>
			<path id="XMLID_1083_" style="fill:#1680F6;" d="M483.24,329.591v104.69c0,5.52-4.48,10-10,10h-34.47c5.52,0,10-4.48,10-10     v-104.69H483.24z"/>
			<path id="XMLID_1086_" style="fill:#1680F6;" d="M483.24,397.671v36.61c0,5.52-4.48,10-10,10H38.76c-5.52,0-10-4.48-10-10v-36.61     H483.24z"/>
			<path id="XMLID_1089_" style="fill:#4C60DC;" d="M483.24,397.671v36.61c0,5.52-4.48,10-10,10h-34.47c5.52,0,10-4.48,10-10v-36.61     H483.24z"/>
			<path id="XMLID_1915_" style="fill:#37D0F5;" d="M498.5,354.839h-485c-3.314,0-6-2.686-6-6v-40.289c0-3.314,2.686-6,6-6h485     c3.314,0,6,2.686,6,6v40.289C504.5,352.153,501.814,354.839,498.5,354.839z"/>
		</g>
		<path id="XMLID_1913_" style="fill:#5AC034;" d="M296.926,181.539l19.637-49.52c2.782-7.016-0.65-14.96-7.666-17.742l0,0    c-7.016-2.782-14.96,0.65-17.742,7.666l-19.637,49.52c-2.074,5.23-6.63,9.225-12.181,10.141c-5.118,0.844-9.678,4.271-11.73,9.446    l-19.347,48.788l53.308,21.139l19.347-48.788c2.052-5.174,1.08-10.795-2.068-14.917    C295.431,192.801,294.852,186.769,296.926,181.539z"/>
		<path id="XMLID_1090_" style="fill:#F9DAC0;" d="M292.326,271.367c-3.619-26.271-26.145-46.508-53.41-46.508    c-27.265,0-49.792,20.237-53.41,46.508H292.326z"/>
	</g>
	<g id="XMLID_1091_">
		<path id="XMLID_1092_" d="M498.5,295.049h-15.61c-3.71-6.926-8.41-13.277-14.013-18.88c-9.923-9.922-22.1-16.917-35.238-20.585    c3.793-6.967,5.833-14.842,5.833-22.842c0-26.306-21.402-47.708-47.708-47.708c-21.544,0-39.854,14.121-45.736,34.04    c-9.888-4.247-20.65-6.534-31.697-6.534c-1.91,0-3.816,0.093-5.719,0.227c1.929-6.842,0.555-14.338-3.806-20.047    c-1.725-2.258-2.073-5.483-0.91-8.417l19.638-49.521c2.084-5.256,1.997-11.009-0.246-16.199s-6.372-9.196-11.628-11.28    c-5.254-2.083-11.007-1.997-16.198,0.246c-5.19,2.243-9.196,6.372-11.28,11.628l-19.637,49.52    c-1.164,2.934-3.627,5.043-6.43,5.506c-7.192,1.186-13.406,5.818-16.653,12.266c-10.167-4.475-21.254-6.826-32.437-6.826    c-3.682,0-7.331,0.262-10.928,0.757l-2.973-52.026c-0.222-3.87-2.098-7.461-5.149-9.853c-3.05-2.392-6.989-3.357-10.797-2.648    l-31.613,5.878V81.22c0-11.58-9.42-21-21-21s-21,9.42-21,21v48.336l-32.277,5.998c-3.812,0.708-7.137,3.024-9.125,6.352    c-1.987,3.329-2.447,7.354-1.263,11.044l25.99,81.009c-15.91,2.945-30.777,10.633-42.348,22.203    c-10.812,10.812-18.177,24.155-21.525,38.886H13.5c-7.444,0-13.5,6.056-13.5,13.5v40.29c0,7.444,6.056,13.5,13.5,13.5h7.761    v71.941c0,9.649,7.851,17.5,17.5,17.5h110.978c4.142,0,7.5-3.358,7.5-7.5s-3.358-7.5-7.5-7.5H38.761c-1.378,0-2.5-1.122-2.5-2.5    v-29.109h439.478v29.109c0,1.378-1.122,2.5-2.5,2.5H184.261c-4.142,0-7.5,3.358-7.5,7.5s3.358,7.5,7.5,7.5h288.978    c9.649,0,17.5-7.851,17.5-17.5v-71.941h7.761c7.444,0,13.5-6.056,13.5-13.5v-40.29C512,301.105,505.944,295.049,498.5,295.049z     M391.765,200.035c18.035,0,32.708,14.673,32.708,32.708c0,7.367-2.385,14.296-6.892,20.076    c-6.689-0.466-13.484-0.108-20.234,1.138c-6.639,1.225-13.177-1.464-17.061-7.019c-5.665-8.102-12.688-14.974-20.642-20.398    C362.548,211.238,375.871,200.035,391.765,200.035z M260.557,189.004c7.968-1.315,14.839-6.977,17.932-14.776l19.637-49.52    c0.607-1.531,1.774-2.734,3.287-3.388c1.512-0.654,3.188-0.679,4.719-0.072c1.531,0.607,2.734,1.774,3.388,3.287    c0.653,1.512,0.679,3.188,0.072,4.719l-19.637,49.52c-3.093,7.799-1.97,16.631,2.932,23.05c1.678,2.197,2.073,5.038,1.057,7.6    l-10.686,26.948c-9.909-10.329-23.34-17.179-38.144-18.689l9.465-23.869C255.594,191.252,257.829,189.455,260.557,189.004z     M120.564,81.22c0-3.309,2.691-6,6-6s6,2.691,6,6v64c0,3.309-2.691,6-6,6s-6-2.691-6-6V81.22z M105.564,144.812v0.408    c0,11.58,9.42,21,21,21s21-9.42,21-21v-8.213l32.681-6.076l3.026,52.962c-16.054,5.436-30.23,15.88-40.199,30.131    c-8.47,12.106-22.371,19.06-37.192,18.616c-0.556-0.017-1.109-0.002-1.664-0.007L77.703,149.99L105.564,144.812z M497,347.339    h-80.739c-4.142,0-7.5,3.358-7.5,7.5s3.358,7.5,7.5,7.5h59.478v27.832H36.261v-27.832h345.478c4.142,0,7.5-3.358,7.5-7.5    s-3.358-7.5-7.5-7.5H15v-37.29h103.739c4.142,0,7.5-3.358,7.5-7.5s-3.358-7.5-7.5-7.5H40.501    c3.02-10.653,8.678-20.311,16.646-28.28c12.895-12.894,30.043-19.691,48.277-19.137c19.912,0.612,38.561-8.745,49.938-25.01    c12.256-17.52,32.316-27.979,53.661-27.979c9.259,0,18.431,1.978,26.813,5.74l-7.064,17.813    c-5.204,0.863-10.265,2.39-15.123,4.586c-3.774,1.706-5.452,6.148-3.746,9.923c1.706,3.774,6.147,5.453,9.923,3.746    c6.009-2.716,12.432-4.093,19.088-4.093c23.069,0,42.837,17.209,45.98,40.031c0.517,3.756,3.732,6.478,7.42,6.478    c0.341,0,0.686-0.023,1.033-0.071c4.104-0.565,6.972-4.35,6.406-8.453c-0.954-6.928-3.078-13.459-6.133-19.42l8.837-22.284    c3.898-0.715,7.88-1.098,11.872-1.098c21.344,0,41.404,10.464,53.66,27.992c7.183,10.272,19.774,15.446,32.075,13.174    c21.216-3.912,42.977,2.842,58.204,18.068c2.573,2.573,4.907,5.342,7.002,8.273H153.261c-4.142,0-7.5,3.358-7.5,7.5    s3.358,7.5,7.5,7.5H497V347.339z"/>
		<path id="XMLID_1099_" d="M351.649,271.825c4.142,0,7.5-3.358,7.5-7.5s-3.358-7.5-7.5-7.5h-0.093c-4.142,0-7.454,3.358-7.454,7.5    S347.507,271.825,351.649,271.825z"/>
		<path id="XMLID_1100_" d="M190.802,233.803c4.142,0,7.5-3.358,7.5-7.5s-3.358-7.5-7.5-7.5h-0.093c-4.142,0-7.454,3.358-7.454,7.5    S186.66,233.803,190.802,233.803z"/>
		<path id="XMLID_1101_" d="M170.203,257.942c4.142,0,7.5-3.358,7.5-7.5s-3.358-7.5-7.5-7.5h-0.093c-4.142,0-7.454,3.358-7.454,7.5    S166.061,257.942,170.203,257.942z"/>
	</g>
</g>















</svg>
